<svg width="300" height="300" viewBox="0 0 300 300" fill="none" xmlns="http://www.w3.org/2000/svg">
<path d="M300 229.44H0V229.59H300V229.44Z" fill="#EBEBEB"/>
<path d="M91.4999 233.064H85.2119V233.214H91.4999V233.064Z" fill="#EBEBEB"/>
<path d="M279.708 237H268.998V237.15H279.708V237Z" fill="#EBEBEB"/>
<path d="M229.134 233.136H193.644V233.286H229.134V233.136Z" fill="#EBEBEB"/>
<path d="M140.334 236.556H113.184V236.706H140.334V236.556Z" fill="#EBEBEB"/>
<path d="M83.8079 235.608H74.3999V235.758H83.8079V235.608Z" fill="#EBEBEB"/>
<path d="M255.804 236.556H242.268V236.706H255.804V236.556Z" fill="#EBEBEB"/>
<path d="M70.902 235.536H38.958V235.686H70.902V235.536Z" fill="#EBEBEB"/>
<path d="M142.2 202.68H26.3458C25.4382 202.678 24.5683 202.317 23.9271 201.674C23.2859 201.032 22.9258 200.162 22.9258 199.254V36.396C22.9337 35.4936 23.2973 34.6308 23.9376 33.9949C24.578 33.3591 25.4434 33.0015 26.3458 33H142.2C143.108 33 143.98 33.361 144.622 34.0035C145.265 34.646 145.626 35.5174 145.626 36.426V199.254C145.626 200.163 145.265 201.034 144.622 201.677C143.98 202.319 143.108 202.68 142.2 202.68ZM26.3458 33.12C25.478 33.1216 24.6462 33.4674 24.0332 34.0816C23.4201 34.6958 23.0758 35.5282 23.0758 36.396V199.254C23.0758 200.122 23.4201 200.954 24.0332 201.568C24.6462 202.183 25.478 202.528 26.3458 202.53H142.2C143.068 202.527 143.899 202.181 144.513 201.567C145.126 200.953 145.473 200.122 145.476 199.254V36.396C145.473 35.5281 145.126 34.6967 144.513 34.083C143.899 33.4693 143.068 33.1232 142.2 33.12H26.3458Z" fill="#EBEBEB"/>
<path d="M271.986 202.68H156.126C155.219 202.677 154.349 202.315 153.707 201.673C153.065 201.031 152.703 200.162 152.7 199.254V36.396C152.71 35.4931 153.075 34.6302 153.716 33.9946C154.357 33.3589 155.223 33.0015 156.126 33H271.986C272.888 33.0031 273.751 33.3613 274.39 33.997C275.03 34.6327 275.392 35.4947 275.4 36.396V199.254C275.401 199.703 275.313 200.148 275.142 200.563C274.971 200.978 274.72 201.356 274.403 201.674C274.086 201.992 273.709 202.245 273.295 202.417C272.88 202.59 272.435 202.679 271.986 202.68ZM156.126 33.12C155.258 33.1232 154.427 33.4693 153.813 34.083C153.2 34.6967 152.853 35.5281 152.85 36.396V199.254C152.853 200.122 153.2 200.953 153.813 201.567C154.427 202.181 155.258 202.527 156.126 202.53H271.986C272.854 202.527 273.685 202.181 274.299 201.567C274.913 200.953 275.259 200.122 275.262 199.254V36.396C275.259 35.5281 274.913 34.6967 274.299 34.083C273.685 33.4693 272.854 33.1232 271.986 33.12H156.126Z" fill="#EBEBEB"/>
<path d="M122.274 50.7783H46.5298V164.142H122.274V50.7783Z" fill="#E6E6E6"/>
<path d="M120.594 50.7783H44.8501V164.142H120.594V50.7783Z" fill="#F5F5F5"/>
<path d="M117.57 54.1738H47.8682V160.752H117.57V54.1738Z" fill="white"/>
<path d="M49.146 54.168H47.874V160.746H49.146V54.168Z" fill="#E6E6E6"/>
<path d="M119.34 127.68H46.0981V132.234H119.34V127.68Z" fill="#F5F5F5"/>
<path opacity="0.4" d="M119.346 45.6299H41.7061V68.9459H119.346V45.6299Z" fill="#F0F0F0"/>
<path d="M41.5558 45.1623H125.556C125.671 45.168 125.78 45.2158 125.861 45.2966C125.943 45.3774 125.993 45.4855 126 45.6003C126 45.7244 125.951 45.8435 125.863 45.9312C125.775 46.019 125.656 46.0683 125.532 46.0683H41.5318C41.4087 46.0667 41.2912 46.0167 41.2048 45.9291C41.1183 45.8415 41.0698 45.7234 41.0698 45.6003C41.079 45.4788 41.1347 45.3656 41.2251 45.284C41.3156 45.2025 41.4341 45.1589 41.5558 45.1623Z" fill="#E6E6E6"/>
<path d="M38.7661 45.6003C38.7649 46.0608 38.9003 46.5112 39.1551 46.8947C39.4099 47.2782 39.7728 47.5775 40.1977 47.7548C40.6226 47.9321 41.0906 47.9794 41.5424 47.8908C41.9942 47.8021 42.4096 47.5814 42.736 47.2567C43.0624 46.932 43.2852 46.5177 43.3762 46.0664C43.4672 45.615 43.4223 45.1468 43.2472 44.721C43.0721 44.2951 42.7746 43.9308 42.3925 43.674C42.0103 43.4172 41.5606 43.2795 41.1001 43.2783C40.7944 43.2775 40.4915 43.337 40.2088 43.4532C39.926 43.5695 39.6689 43.7403 39.4522 43.9559C39.2355 44.1716 39.0633 44.4278 38.9456 44.7099C38.8279 44.992 38.7669 45.2946 38.7661 45.6003Z" fill="#E6E6E6"/>
<path d="M121.65 48.2281C121.812 48.2283 121.968 48.166 122.085 48.0543C122.203 47.9425 122.272 47.7899 122.28 47.6281V46.2541C122.272 46.0922 122.203 45.9396 122.085 45.8279C121.968 45.7161 121.812 45.6539 121.65 45.6541C121.569 45.65 121.487 45.6625 121.411 45.6908C121.335 45.7192 121.265 45.7627 121.206 45.8188C121.147 45.875 121.1 45.9425 121.068 46.0173C121.036 46.0921 121.02 46.1727 121.02 46.2541V47.6341C121.02 47.7932 121.083 47.9458 121.196 48.0583C121.308 48.1709 121.461 48.2341 121.62 48.2341L121.65 48.2281Z" fill="#E6E6E6"/>
<path d="M48.6 48.2283C48.7591 48.2283 48.9117 48.1651 49.0243 48.0526C49.1368 47.94 49.2 47.7874 49.2 47.6283V46.2543C49.2 46.0952 49.1368 45.9426 49.0243 45.83C48.9117 45.7175 48.7591 45.6543 48.6 45.6543C48.4409 45.6543 48.2883 45.7175 48.1757 45.83C48.0632 45.9426 48 46.0952 48 46.2543V47.6043C48 47.7634 48.0632 47.916 48.1757 48.0286C48.2883 48.1411 48.4409 48.2043 48.6 48.2043V48.2283Z" fill="#E6E6E6"/>
<path d="M111.846 45.6003C111.845 46.0608 111.98 46.5112 112.235 46.8947C112.49 47.2782 112.853 47.5775 113.278 47.7548C113.703 47.9321 114.171 47.9794 114.622 47.8908C115.074 47.8021 115.49 47.5814 115.816 47.2567C116.142 46.932 116.365 46.5177 116.456 46.0664C116.547 45.615 116.502 45.1468 116.327 44.721C116.152 44.2951 115.855 43.9308 115.473 43.674C115.09 43.4172 114.641 43.2795 114.18 43.2783C113.874 43.2775 113.572 43.337 113.289 43.4532C113.006 43.5695 112.749 43.7403 112.532 43.9559C112.316 44.1716 112.143 44.4278 112.026 44.7099C111.908 44.992 111.847 45.2946 111.846 45.6003Z" fill="#E6E6E6"/>
<path d="M257.538 177.78H235.626V226.356H257.538V177.78Z" fill="#E6E6E6"/>
<path d="M253.332 226.362H145.284V229.44H253.332V226.362Z" fill="#E6E6E6"/>
<path d="M235.626 177.786H141.072V226.362H235.626V177.786Z" fill="#F5F5F5"/>
<path d="M227.016 183.762H149.688V199.692H227.016V183.762Z" fill="#E6E6E6"/>
<path d="M227.016 204.45H149.688V220.38H227.016V204.45Z" fill="#E6E6E6"/>
<path d="M198.198 190.638H178.494C177.96 190.638 177.528 191.07 177.528 191.604V191.856C177.528 192.389 177.96 192.822 178.494 192.822H198.198C198.731 192.822 199.164 192.389 199.164 191.856V191.604C199.164 191.07 198.731 190.638 198.198 190.638Z" fill="#F5F5F5"/>
<path d="M198.198 211.32H178.494C177.96 211.32 177.528 211.753 177.528 212.286V212.538C177.528 213.072 177.96 213.504 178.494 213.504H198.198C198.731 213.504 199.164 213.072 199.164 212.538V212.286C199.164 211.753 198.731 211.32 198.198 211.32Z" fill="#F5F5F5"/>
<path d="M209.502 170.814C212.179 170.814 214.35 168.644 214.35 165.966C214.35 163.289 212.179 161.118 209.502 161.118C206.824 161.118 204.654 163.289 204.654 165.966C204.654 168.644 206.824 170.814 209.502 170.814Z" fill="#F5F5F5"/>
<path d="M200.754 169.716C203.421 169.716 205.584 167.553 205.584 164.886C205.584 162.218 203.421 160.056 200.754 160.056C198.086 160.056 195.924 162.218 195.924 164.886C195.924 167.553 198.086 169.716 200.754 169.716Z" fill="#F5F5F5"/>
<path d="M177.402 171.948C180.069 171.948 182.232 169.786 182.232 167.118C182.232 164.451 180.069 162.288 177.402 162.288C174.734 162.288 172.572 164.451 172.572 167.118C172.572 169.786 174.734 171.948 177.402 171.948Z" fill="#F5F5F5"/>
<path d="M189.852 174.18C192.52 174.18 194.682 172.017 194.682 169.35C194.682 166.682 192.52 164.52 189.852 164.52C187.184 164.52 185.022 166.682 185.022 169.35C185.022 172.017 187.184 174.18 189.852 174.18Z" fill="#F5F5F5"/>
<path d="M222.378 166.674C222.378 166.674 221.598 177.786 191.622 177.786C161.646 177.786 160.866 166.674 160.866 166.674H222.378Z" fill="#E6E6E6"/>
<path d="M120.3 178.998H109.362V226.434H120.3V178.998Z" fill="#E6E6E6"/>
<path d="M118.194 226.434H47.25V229.44H118.194V226.434Z" fill="#E6E6E6"/>
<path d="M109.356 178.998H45.1499V226.434H109.356V178.998Z" fill="#F5F5F5"/>
<path d="M105.06 184.836H49.4521V200.394H105.06V184.836Z" fill="#E6E6E6"/>
<path d="M105.06 205.038H49.4521V220.596H105.06V205.038Z" fill="#E6E6E6"/>
<path d="M68.8322 186.738H85.6742C86.2228 186.735 86.7481 186.516 87.1366 186.128C87.5251 185.741 87.7455 185.216 87.7502 184.668C87.7486 184.118 87.5294 183.591 87.1404 183.202C86.7514 182.813 86.2243 182.593 85.6742 182.592H68.8322C68.2836 182.597 67.759 182.817 67.3716 183.205C66.9842 183.594 66.7653 184.119 66.7622 184.668C66.7654 185.216 66.9845 185.741 67.372 186.128C67.7595 186.516 68.2842 186.735 68.8322 186.738Z" fill="#F5F5F5"/>
<path d="M68.8322 206.94H85.6742C86.2243 206.938 86.7514 206.719 87.1404 206.33C87.5294 205.941 87.7486 205.414 87.7502 204.864C87.7455 204.315 87.5251 203.791 87.1366 203.403C86.7481 203.016 86.2228 202.797 85.6742 202.794H68.8322C68.2842 202.797 67.7595 203.016 67.372 203.404C66.9845 203.791 66.7654 204.316 66.7622 204.864C66.7653 205.413 66.9842 205.938 67.3716 206.326C67.759 206.715 68.2836 206.935 68.8322 206.94Z" fill="#F5F5F5"/>
<path d="M199.194 61.2236H167.79V125.148H199.194V61.2236Z" fill="#EBEBEB"/>
<path d="M198.516 61.2236H165.27V125.148H198.516V61.2236Z" fill="#F5F5F5"/>
<path d="M193.674 66.0596H170.1V120.312H193.674V66.0596Z" fill="white"/>
<path d="M258.048 95.2383H240.852V115.05H258.048V95.2383Z" fill="#EBEBEB"/>
<path d="M256.008 95.2383H237.372V115.05H256.008V95.2383Z" fill="#F5F5F5"/>
<path d="M254.448 96.8037H238.938V113.49H254.448V96.8037Z" fill="white"/>
<path d="M249.318 100.848H244.062C243.306 100.848 242.694 101.46 242.694 102.216V108.078C242.694 108.833 243.306 109.446 244.062 109.446H249.318C250.073 109.446 250.686 108.833 250.686 108.078V102.216C250.686 101.46 250.073 100.848 249.318 100.848Z" fill="#F0F0F0"/>
<path d="M244.188 67.6738H226.992V87.4858H244.188V67.6738Z" fill="#EBEBEB"/>
<path d="M242.154 67.6738H223.518V87.4858H242.154V67.6738Z" fill="#F5F5F5"/>
<path d="M240.594 69.2344H225.084V85.9204H240.594V69.2344Z" fill="white"/>
<path d="M235.464 73.2783H230.208C229.452 73.2783 228.84 73.8908 228.84 74.6463V80.5083C228.84 81.2638 229.452 81.8763 230.208 81.8763H235.464C236.219 81.8763 236.832 81.2638 236.832 80.5083V74.6463C236.832 73.8908 236.219 73.2783 235.464 73.2783Z" fill="#F0F0F0"/>
<path opacity="0.2" d="M101.106 54.3118C121.914 37.0498 144.906 47.9458 161.328 64.2418C181.836 84.6418 192.702 99.5998 223.866 101.01C250.344 102.21 262.59 99.7078 267.762 130.482C272.064 156.06 267.822 184.596 243.366 197.754C221.214 209.67 185.538 207.018 166.278 190.488C142.2 169.8 155.706 140.616 140.838 116.886C126.744 94.3918 114.174 109.998 98.3458 100.86C81.2758 91.0078 84.7258 67.9018 101.106 54.3118Z" fill="#407BFF"/>
<path d="M150 256.536C214.25 256.536 266.334 253.495 266.334 249.744C266.334 245.993 214.25 242.952 150 242.952C85.7505 242.952 33.666 245.993 33.666 249.744C33.666 253.495 85.7505 256.536 150 256.536Z" fill="#F5F5F5"/>
<path d="M195.348 75.8213H65.8018V202.667H195.348V75.8213Z" fill="#407BFF"/>
<path opacity="0.7" d="M195.348 75.8213H65.8018V202.667H195.348V75.8213Z" fill="black"/>
<path d="M192.024 79.877H69.1377V202.667H192.024V79.877Z" fill="white"/>
<path d="M195.348 200.879V202.667H130.062L144.174 188.567L163.602 169.127L195.348 200.879Z" fill="#407BFF"/>
<path opacity="0.7" d="M195.348 200.879V202.667H130.062L144.174 188.567L163.602 169.127L195.348 200.879Z" fill="black"/>
<path d="M65.8018 202.667V190.475L105.942 150.335L158.274 202.667H65.8018Z" fill="#407BFF"/>
<path opacity="0.7" d="M65.8018 202.667V190.475L105.942 150.335L158.274 202.667H65.8018Z" fill="black"/>
<path d="M171.52 119.716C173.276 108.903 165.932 98.7135 155.119 96.9582C144.305 95.2029 134.116 102.546 132.361 113.36C130.606 124.173 137.949 134.362 148.762 136.118C159.576 137.873 169.765 130.53 171.52 119.716Z" fill="#407BFF"/>
<path opacity="0.7" d="M171.52 119.716C173.276 108.903 165.932 98.7135 155.119 96.9582C144.305 95.2029 134.116 102.546 132.361 113.36C130.606 124.173 137.949 134.362 148.762 136.118C159.576 137.873 169.765 130.53 171.52 119.716Z" fill="black"/>
<path d="M104.22 73.3263L91.8862 199.571L220.818 212.168L233.152 85.9228L104.22 73.3263Z" fill="#407BFF"/>
<path opacity="0.1" d="M104.22 73.2863L91.8862 199.531L220.818 212.128L233.152 85.8828L104.22 73.2863Z" fill="black"/>
<path d="M107.147 77.6874L95.2075 199.896L217.511 211.844L229.451 89.6362L107.147 77.6874Z" fill="white"/>
<path d="M218.77 82.4067L218.712 83.0039L222.999 83.4228L223.058 82.8256L218.77 82.4067Z" fill="#407BFF"/>
<path d="M205.113 80.194L205.053 80.791L215.597 81.8452L215.656 81.2482L205.113 80.194Z" fill="#407BFF"/>
<path opacity="0.1" d="M218.77 82.4067L218.712 83.0039L222.999 83.4228L223.058 82.8256L218.77 82.4067Z" fill="black"/>
<path opacity="0.1" d="M205.113 80.194L205.053 80.791L215.597 81.8452L215.656 81.2482L205.113 80.194Z" fill="black"/>
<path opacity="0.1" d="M220.986 210.377L220.812 212.159L155.838 205.811L171.252 193.151L192.48 175.691L220.986 210.377Z" fill="black"/>
<path d="M220.986 210.377L220.812 212.159L155.838 205.811L171.252 193.151L192.48 175.691L220.986 210.377Z" fill="#407BFF"/>
<path opacity="0.1" d="M220.986 210.377L220.812 212.159L155.838 205.811L171.252 193.151L192.48 175.691L220.986 210.377Z" fill="black"/>
<path opacity="0.1" d="M185.988 142.056C196.943 142.056 205.824 133.175 205.824 122.22C205.824 111.265 196.943 102.384 185.988 102.384C175.033 102.384 166.152 111.265 166.152 122.22C166.152 133.175 175.033 142.056 185.988 142.056Z" fill="black"/>
<path d="M185.988 142.056C196.943 142.056 205.824 133.175 205.824 122.22C205.824 111.265 196.943 102.384 185.988 102.384C175.033 102.384 166.152 111.265 166.152 122.22C166.152 133.175 175.033 142.056 185.988 142.056Z" fill="#407BFF"/>
<path opacity="0.1" d="M185.988 142.056C196.943 142.056 205.824 133.175 205.824 122.22C205.824 111.265 196.943 102.384 185.988 102.384C175.033 102.384 166.152 111.265 166.152 122.22C166.152 133.175 175.033 142.056 185.988 142.056Z" fill="black"/>
<path d="M175.655 90.0801L46.3853 98.5303L54.6593 225.106L183.929 216.656L175.655 90.0801Z" fill="#407BFF"/>
<path d="M172.596 94.3417L49.9722 102.357L57.9816 224.886L180.606 216.87L172.596 94.3417Z" fill="white"/>
<path opacity="0.5" d="M175.655 90.0801L46.3853 98.5303L54.6593 225.106L183.929 216.656L175.655 90.0801Z" fill="white"/>
<path d="M183.798 214.884L183.912 216.666L118.77 220.92L131.928 205.932L150.048 185.268L183.798 214.884Z" fill="#407BFF"/>
<path opacity="0.5" d="M183.798 214.884L183.912 216.666L118.77 220.92L131.928 205.932L150.048 185.268L183.798 214.884Z" fill="white"/>
<path d="M54.6421 225.107L53.8501 212.945L91.2901 170.273L146.916 219.083L54.6421 225.107Z" fill="#407BFF"/>
<path opacity="0.5" d="M54.6421 225.107L53.8501 212.945L91.2901 170.273L146.916 219.083L54.6421 225.107Z" fill="white"/>
<path d="M134.988 153.383C145.943 153.383 154.824 144.502 154.824 133.547C154.824 122.592 145.943 113.711 134.988 113.711C124.033 113.711 115.152 122.592 115.152 133.547C115.152 144.502 124.033 153.383 134.988 153.383Z" fill="#407BFF"/>
<path opacity="0.5" d="M134.988 153.383C145.943 153.383 154.824 144.502 154.824 133.547C154.824 122.592 145.943 113.711 134.988 113.711C124.033 113.711 115.152 122.592 115.152 133.547C115.152 144.502 124.033 153.383 134.988 153.383Z" fill="white"/>
<path d="M234.378 120.552C234.804 121.338 235.158 122.034 235.506 122.79C235.854 123.546 236.196 124.272 236.526 125.022C237.168 126.522 237.768 128.022 238.326 129.612C238.874 131.186 239.338 132.789 239.718 134.412L240 135.648L240.228 136.902C240.312 137.322 240.36 137.754 240.42 138.18L240.504 138.828V139.254C240.516 139.454 240.516 139.654 240.504 139.854C240.457 140.999 240.192 142.125 239.724 143.172C239.362 144.01 238.945 144.824 238.476 145.608C237.602 147.041 236.634 148.414 235.578 149.718C233.547 152.241 231.322 154.603 228.924 156.78L226.476 154.584C228.222 152.064 229.956 149.46 231.516 146.88C232.28 145.624 232.979 144.331 233.61 143.004C233.894 142.407 234.137 141.792 234.336 141.162C234.485 140.757 234.558 140.327 234.552 139.896V139.764L234.438 139.248C234.366 138.9 234.3 138.558 234.198 138.21L233.922 137.166L233.616 136.116C233.178 134.718 232.692 133.32 232.146 131.916C231.6 130.512 231.024 129.138 230.418 127.764C229.812 126.39 229.146 124.986 228.534 123.72L234.378 120.552Z" fill="#EEC1BB"/>
<path d="M241.26 131.046L233.094 135.36L231.126 136.404C231.126 136.404 230.664 135.054 230.01 133.092C229.482 131.526 228.81 129.576 228.174 127.602C227.97 127.002 227.766 126.36 227.574 125.748C227.514 125.574 227.454 125.406 227.4 125.232C225.636 119.832 230.532 117.402 233.862 118.098C239.562 119.292 241.26 131.046 241.26 131.046Z" fill="#407BFF"/>
<path opacity="0.7" d="M241.26 131.046L233.094 135.36L231.126 136.404C231.126 136.404 230.664 135.054 230.01 133.092C229.482 131.526 228.81 129.576 228.174 127.602C227.97 127.002 227.766 126.36 227.574 125.748C227.514 125.574 227.454 125.406 227.4 125.232C225.636 119.832 230.532 117.402 233.862 118.098C239.562 119.292 241.26 131.046 241.26 131.046Z" fill="white"/>
<path d="M233.094 135.36L231.126 136.404C231.126 136.404 230.664 135.054 230.01 133.092C229.482 131.526 228.81 129.576 228.174 127.602C227.97 127.002 227.766 126.36 227.574 125.748L232.074 124.866C232.074 124.866 232.686 132 233.094 135.36Z" fill="#407BFF"/>
<path opacity="0.6" d="M233.094 135.36L231.126 136.404C231.126 136.404 230.664 135.054 230.01 133.092C229.482 131.526 228.81 129.576 228.174 127.602C227.97 127.002 227.766 126.36 227.574 125.748L232.074 124.866C232.074 124.866 232.686 132 233.094 135.36Z" fill="white"/>
<path d="M227.472 153.9L223.272 155.298L227.082 159.384C227.082 159.384 230.4 157.398 229.548 155.52L227.472 153.9Z" fill="#EEC1BB"/>
<path d="M220.374 159.06L223.674 162.234L227.07 159.384L223.26 155.298L220.374 159.06Z" fill="#EEC1BB"/>
<path d="M197.37 240.438L193.014 240.114L192.606 229.932L196.962 230.256L197.37 240.438Z" fill="#EEC1BB"/>
<path d="M225.24 244.326H220.866L217.458 234.198H221.832L225.24 244.326Z" fill="#EEC1BB"/>
<path d="M192.606 229.938L192.816 235.188L197.178 235.511L196.968 230.261L192.606 229.938Z" fill="#DB9792"/>
<path d="M221.832 234.204H217.458L219.216 239.424H223.59L221.832 234.204Z" fill="#DB9792"/>
<path d="M225.168 238.41H217.158C217.158 238.41 209.358 211.578 207.396 197.688C206.976 194.688 207.222 190.728 207.852 186.432C208.926 179.082 211.098 170.736 212.904 164.508C214.512 158.97 215.838 155.1 215.838 155.1L230.892 156.222C230.076 167.148 219.264 185.088 220.014 199.914C220.704 213.6 225.168 238.41 225.168 238.41Z" fill="#407BFF"/>
<path opacity="0.7" d="M225.168 238.41H217.158C217.158 238.41 209.358 211.578 207.396 197.688C206.976 194.688 207.222 190.728 207.852 186.432C208.926 179.082 211.098 170.736 212.904 164.508C214.512 158.97 215.838 155.1 215.838 155.1L230.892 156.222C230.076 167.148 219.264 185.088 220.014 199.914C220.704 213.6 225.168 238.41 225.168 238.41Z" fill="black"/>
<path d="M227.358 105.732C226.422 108.852 225.216 114.624 227.232 116.964C227.232 116.964 226.032 120.108 220.128 119.52C213.624 118.872 217.344 115.986 217.344 115.986C220.974 115.488 221.148 112.848 220.77 110.31L227.358 105.732Z" fill="#EEC1BB"/>
<path d="M216.27 101.01C216.234 101.358 216.018 101.61 215.79 101.61C215.562 101.61 215.406 101.286 215.436 100.932C215.466 100.578 215.688 100.332 215.916 100.332C216.144 100.332 216.306 100.656 216.27 101.01Z" fill="#263238"/>
<path d="M216.258 101.184C215.736 102.215 215.071 103.169 214.284 104.016C214.506 104.212 214.768 104.357 215.052 104.441C215.336 104.525 215.635 104.546 215.928 104.502L216.258 101.184Z" fill="#D4827D"/>
<path d="M217.614 99.8515C217.578 99.8521 217.542 99.843 217.51 99.825C217.479 99.8071 217.453 99.781 217.434 99.7495C217.305 99.5248 217.125 99.3337 216.908 99.1919C216.691 99.0501 216.444 98.9616 216.186 98.9335C216.131 98.9305 216.079 98.9064 216.041 98.8662C216.003 98.826 215.982 98.7728 215.982 98.7175C215.981 98.6921 215.984 98.6666 215.993 98.6427C216.001 98.6187 216.015 98.5967 216.032 98.5782C216.05 98.5596 216.071 98.5448 216.094 98.5347C216.118 98.5247 216.143 98.5195 216.168 98.5195H216.198C216.525 98.5481 216.841 98.6552 217.118 98.8318C217.394 99.0083 217.624 99.249 217.788 99.5335C217.817 99.5806 217.827 99.6372 217.815 99.6911C217.802 99.745 217.769 99.7919 217.722 99.8215C217.689 99.8397 217.652 99.85 217.614 99.8515Z" fill="#263238"/>
<path d="M220.284 243.816H225.6C225.687 243.815 225.772 243.845 225.84 243.899C225.908 243.954 225.954 244.03 225.972 244.116L226.836 248.004C226.854 248.086 226.855 248.172 226.839 248.255C226.824 248.338 226.792 248.417 226.746 248.488C226.699 248.559 226.64 248.62 226.57 248.668C226.5 248.715 226.421 248.748 226.338 248.766H226.194C224.484 248.736 223.23 248.64 221.07 248.64C219.744 248.64 217.002 248.778 215.166 248.778C213.33 248.778 213.096 246.978 213.846 246.798C217.212 246.06 218.484 245.046 219.558 244.074C219.761 243.903 220.019 243.811 220.284 243.816Z" fill="#263238"/>
<path d="M192.804 239.136L197.568 239.49C197.655 239.498 197.736 239.535 197.799 239.595C197.862 239.655 197.903 239.734 197.916 239.82L198.486 243.756C198.5 243.838 198.497 243.923 198.478 244.004C198.459 244.085 198.423 244.162 198.374 244.23C198.325 244.297 198.263 244.354 198.192 244.398C198.12 244.441 198.041 244.47 197.958 244.482C197.906 244.488 197.854 244.488 197.802 244.482C196.086 244.32 193.602 244.038 191.454 243.882C188.928 243.696 187.254 243.606 184.29 243.384C182.49 243.252 182.142 241.404 182.898 241.296C186.366 240.804 188.646 240.996 191.73 239.4C192.057 239.214 192.429 239.123 192.804 239.136Z" fill="#263238"/>
<path d="M207.828 119.844C207.432 120.522 206.958 121.296 206.52 122.028C206.082 122.76 205.602 123.504 205.128 124.23C204.186 125.688 203.208 127.116 202.194 128.496C201.18 129.876 200.124 131.208 199.014 132.45C198.059 133.531 197.02 134.534 195.906 135.45C194.981 135.664 194.04 135.8 193.092 135.858C191.888 135.918 190.681 135.846 189.492 135.642C187.636 135.317 185.837 134.722 184.152 133.878C183.87 133.734 183.594 133.578 183.324 133.422L182.568 132.972L180.282 135.324C180.606 135.696 180.852 135.924 181.146 136.236C181.426 136.511 181.721 136.771 182.028 137.016C182.628 137.521 183.26 137.988 183.918 138.414C185.26 139.272 186.703 139.961 188.214 140.466C189.757 140.976 191.357 141.293 192.978 141.408C194.612 141.509 196.251 141.414 197.862 141.126L198.36 141.036L198.93 140.664C200.609 139.543 202.165 138.25 203.574 136.806C204.933 135.442 206.207 133.998 207.39 132.48C208.59 130.992 209.658 129.45 210.696 127.884C211.212 127.086 211.71 126.282 212.196 125.484C212.682 124.686 213.144 123.888 213.624 122.988L207.828 119.844Z" fill="#EEC1BB"/>
<path d="M184.554 134.4L181.29 131.544L178.8 135.852C178.8 135.852 181.122 138.456 183.852 136.818L184.554 134.4Z" fill="#EEC1BB"/>
<path d="M176.748 129.672L175.014 133.614L178.776 135.852L181.29 131.568L176.748 129.672Z" fill="#EEC1BB"/>
<path d="M228.216 100.98C227.52 105.264 227.334 107.802 224.94 109.8C221.34 112.8 216.21 110.298 215.61 105.894C215.07 101.934 216.294 95.5924 220.68 94.2964C221.647 94.0066 222.671 93.9685 223.657 94.1859C224.642 94.4033 225.556 94.8688 226.311 95.5384C227.066 96.208 227.637 97.0594 227.97 98.0119C228.304 98.9643 228.388 99.9861 228.216 100.98Z" fill="#EEC1BB"/>
<path d="M233.064 98.724C236.268 100.968 228.642 109.2 225.93 109.11C223.218 109.02 218.13 101.502 219.798 97.5C218.4 96.936 217.95 96.75 217.398 95.322C216.366 92.736 217.608 88.422 223.944 89.634C222.372 90.702 223.464 91.548 226.446 91.134C225.246 92.532 227.214 93.564 230.112 92.964C229.602 95.532 236.064 95.898 233.064 98.724Z" fill="#263238"/>
<path d="M222.186 102.306C221.983 103.377 221.367 104.325 220.47 104.946C219.27 105.756 218.214 104.796 218.166 103.422C218.124 102.192 218.694 100.284 220.08 100.026C220.565 99.9441 221.062 100.058 221.462 100.343C221.863 100.627 222.134 101.059 222.216 101.544C222.257 101.797 222.247 102.056 222.186 102.306Z" fill="#EEC1BB"/>
<path opacity="0.4" d="M216.888 167.664C216.804 174.936 211.692 182.97 207.852 186.432C208.926 179.082 211.098 170.736 212.904 164.508C214.026 164.28 215.952 166.41 216.888 167.664Z" fill="black"/>
<path d="M218.838 244.584C218.54 244.606 218.244 244.526 217.998 244.356C217.919 244.291 217.857 244.206 217.819 244.111C217.781 244.015 217.768 243.911 217.782 243.81C217.782 243.749 217.799 243.691 217.829 243.639C217.86 243.587 217.904 243.545 217.956 243.516C218.448 243.276 219.852 244.116 220.014 244.236C220.03 244.247 220.042 244.263 220.049 244.281C220.057 244.299 220.059 244.318 220.056 244.338C220.054 244.358 220.045 244.377 220.031 244.392C220.017 244.408 219.999 244.418 219.978 244.422C219.607 244.523 219.224 244.578 218.838 244.584ZM218.19 243.678C218.145 243.666 218.098 243.666 218.052 243.678C218.032 243.69 218.015 243.708 218.003 243.729C217.992 243.75 217.986 243.774 217.986 243.798C217.978 243.868 217.986 243.939 218.011 244.004C218.036 244.07 218.077 244.129 218.13 244.176C218.617 244.399 219.171 244.427 219.678 244.254C219.224 243.962 218.72 243.758 218.19 243.654V243.678Z" fill="#407BFF"/>
<path d="M219.954 244.428H219.906C219.456 244.182 218.58 243.228 218.67 242.736C218.685 242.66 218.727 242.592 218.787 242.542C218.847 242.493 218.922 242.466 219 242.466C219.079 242.454 219.16 242.46 219.237 242.482C219.314 242.505 219.384 242.545 219.444 242.598C219.948 243.012 220.044 244.272 220.044 244.326C220.044 244.345 220.039 244.363 220.031 244.38C220.022 244.396 220.011 244.411 219.996 244.422L219.954 244.428ZM219.072 242.628H219.03C218.892 242.628 218.88 242.706 218.874 242.73C218.82 243.018 219.378 243.744 219.828 244.086C219.795 243.589 219.615 243.113 219.312 242.718C219.243 242.667 219.157 242.643 219.072 242.652V242.628Z" fill="#407BFF"/>
<path d="M191.31 239.778C190.81 239.832 190.308 239.704 189.894 239.418C189.83 239.35 189.782 239.268 189.755 239.178C189.728 239.089 189.722 238.994 189.738 238.902C189.744 238.845 189.765 238.79 189.799 238.744C189.832 238.697 189.878 238.661 189.93 238.638C190.482 238.386 192.168 239.4 192.36 239.52C192.378 239.531 192.392 239.547 192.4 239.567C192.409 239.586 192.412 239.607 192.408 239.628C192.403 239.649 192.392 239.668 192.376 239.683C192.36 239.698 192.34 239.708 192.318 239.712C191.984 239.755 191.647 239.777 191.31 239.778ZM190.158 238.8C190.111 238.8 190.064 238.811 190.02 238.83C189.999 238.838 189.981 238.852 189.967 238.87C189.954 238.888 189.945 238.909 189.942 238.932C189.93 238.993 189.933 239.056 189.95 239.116C189.968 239.175 190.001 239.23 190.044 239.274C190.296 239.532 191.01 239.628 191.982 239.538C191.427 239.178 190.808 238.927 190.158 238.8Z" fill="#407BFF"/>
<path d="M192.306 239.712H192.252C191.748 239.436 190.776 238.416 190.89 237.912C190.92 237.798 191.01 237.66 191.298 237.648C191.506 237.647 191.706 237.727 191.856 237.87C192.214 238.376 192.407 238.979 192.408 239.598C192.408 239.616 192.404 239.634 192.395 239.649C192.387 239.665 192.375 239.679 192.36 239.688L192.306 239.712ZM191.322 237.864C191.13 237.864 191.118 237.942 191.112 237.966C191.04 238.254 191.712 239.052 192.204 239.412C192.194 238.912 192.029 238.428 191.73 238.026C191.677 237.973 191.613 237.931 191.543 237.903C191.473 237.875 191.398 237.862 191.322 237.864Z" fill="#407BFF"/>
<path d="M207.6 154.488C207.6 154.488 188.712 183.06 188.196 196.392C187.662 210.258 191.286 234.054 191.286 234.054L198.672 234.606C198.672 234.606 199.53 211.974 200.868 198.414C202.326 183.636 223.668 167.166 224.508 155.748L207.6 154.488Z" fill="#407BFF"/>
<path opacity="0.7" d="M207.6 154.488C207.6 154.488 188.712 183.06 188.196 196.392C187.662 210.258 191.286 234.054 191.286 234.054L198.672 234.606C198.672 234.606 199.53 211.974 200.868 198.414C202.326 183.636 223.668 167.166 224.508 155.748L207.6 154.488Z" fill="black"/>
<path d="M215.742 238.584H226.212V235.764L214.512 235.584L215.742 238.584Z" fill="#407BFF"/>
<path d="M189.774 234.096L200.028 234.882L200.244 232.038L188.766 231.012L189.774 234.096Z" fill="#407BFF"/>
<path d="M215.742 121.854C215.43 126.018 210.498 134.136 210.498 134.136L199.332 128.268C199.332 128.268 203.112 122.19 207.246 118.572C211.38 114.954 216.084 117.276 215.742 121.854Z" fill="#407BFF"/>
<path opacity="0.7" d="M215.742 121.854C215.43 126.018 210.498 134.136 210.498 134.136L199.332 128.268C199.332 128.268 203.112 122.19 207.246 118.572C211.38 114.954 216.084 117.276 215.742 121.854Z" fill="white"/>
<path d="M216.078 117.084C216.378 116.484 215.946 114.348 215.946 114.348C215.946 114.348 225.228 113.1 228.546 114.282C230.346 114.918 228.762 118.128 228.762 118.128L216.078 117.084Z" fill="#407BFF"/>
<path opacity="0.7" d="M216.078 117.084C216.378 116.484 215.946 114.348 215.946 114.348C215.946 114.348 225.228 113.1 228.546 114.282C230.346 114.918 228.762 118.128 228.762 118.128L216.078 117.084Z" fill="black"/>
<path d="M230.886 156.222L207.6 154.488C206.84 148.625 206.573 142.708 206.802 136.8C206.898 134.676 207.066 132.72 207.27 130.932C208.35 121.578 210.63 116.826 210.63 116.826C212.872 116.412 215.143 116.173 217.422 116.112C220.738 116.166 224.047 116.412 227.334 116.85C229.717 117.155 232.076 117.62 234.396 118.242C229.686 134.85 231.312 152.652 230.886 156.222Z" fill="#407BFF"/>
<path opacity="0.7" d="M230.886 156.222L207.6 154.488C206.84 148.625 206.573 142.708 206.802 136.8C206.898 134.676 207.066 132.72 207.27 130.932C208.35 121.578 210.63 116.826 210.63 116.826C212.872 116.412 215.143 116.173 217.422 116.112C220.738 116.166 224.047 116.412 227.334 116.85C229.717 117.155 232.076 117.62 234.396 118.242C229.686 134.85 231.312 152.652 230.886 156.222Z" fill="white"/>
</svg>
